<mxfile host="app.diagrams.net" modified="2022-03-25T06:43:43.892Z" agent="5.0 (Windows NT 10.0; Win64; x64) AppleWebKit/537.36 (KHTML, like Gecko) Chrome/99.0.4844.82 Safari/537.36" etag="0V9JLz1c2H4ZiZIWOEIh" version="17.1.1" type="github">
  <diagram name="Page-1" id="c7558073-3199-34d8-9f00-42111426c3f3">
    <mxGraphModel dx="1864" dy="579" grid="1" gridSize="10" guides="1" tooltips="1" connect="1" arrows="1" fold="1" page="1" pageScale="1" pageWidth="826" pageHeight="1169" background="none" math="0" shadow="0">
      <root>
        <mxCell id="0" />
        <mxCell id="1" parent="0" />
        <mxCell id="lZClP9aSU73zNONE4iG2-143" value="" style="rounded=0;whiteSpace=wrap;html=1;dashed=1;fontSize=12;strokeColor=default;" vertex="1" parent="1">
          <mxGeometry x="-232" y="150" width="750" height="490" as="geometry" />
        </mxCell>
        <mxCell id="lZClP9aSU73zNONE4iG2-96" value="&lt;font style=&quot;font-size: 29px&quot;&gt;iDas集群相关流程图&lt;/font&gt;" style="text;html=1;strokeColor=none;fillColor=none;align=center;verticalAlign=middle;whiteSpace=wrap;rounded=0;" vertex="1" parent="1">
          <mxGeometry x="253" y="40" width="320" height="30" as="geometry" />
        </mxCell>
        <mxCell id="lZClP9aSU73zNONE4iG2-116" style="edgeStyle=orthogonalEdgeStyle;rounded=0;orthogonalLoop=1;jettySize=auto;html=1;fontSize=12;" edge="1" parent="1" source="lZClP9aSU73zNONE4iG2-98">
          <mxGeometry relative="1" as="geometry">
            <mxPoint x="143" y="380" as="targetPoint" />
          </mxGeometry>
        </mxCell>
        <mxCell id="lZClP9aSU73zNONE4iG2-98" value="iDas-web" style="rounded=0;whiteSpace=wrap;html=1;fontSize=12;fillColor=#ffe6cc;strokeColor=#d79b00;" vertex="1" parent="1">
          <mxGeometry x="83" y="190" width="120" height="60" as="geometry" />
        </mxCell>
        <mxCell id="lZClP9aSU73zNONE4iG2-127" value="" style="edgeStyle=orthogonalEdgeStyle;rounded=0;orthogonalLoop=1;jettySize=auto;html=1;fontSize=12;entryX=0.495;entryY=0.127;entryDx=0;entryDy=0;entryPerimeter=0;" edge="1" parent="1" source="lZClP9aSU73zNONE4iG2-125" target="lZClP9aSU73zNONE4iG2-126">
          <mxGeometry relative="1" as="geometry" />
        </mxCell>
        <mxCell id="lZClP9aSU73zNONE4iG2-136" value="taier创建成功" style="edgeStyle=orthogonalEdgeStyle;rounded=0;orthogonalLoop=1;jettySize=auto;html=1;fontSize=12;entryX=1;entryY=0.5;entryDx=0;entryDy=0;" edge="1" parent="1" source="lZClP9aSU73zNONE4iG2-125" target="lZClP9aSU73zNONE4iG2-138">
          <mxGeometry relative="1" as="geometry">
            <mxPoint x="490" y="410" as="targetPoint" />
            <Array as="points">
              <mxPoint x="-40" y="410" />
              <mxPoint x="-40" y="410" />
            </Array>
          </mxGeometry>
        </mxCell>
        <mxCell id="lZClP9aSU73zNONE4iG2-141" value="创建失败&lt;br&gt;返回错误&lt;br&gt;原因" style="edgeStyle=orthogonalEdgeStyle;rounded=0;orthogonalLoop=1;jettySize=auto;html=1;entryX=0.25;entryY=1;entryDx=0;entryDy=0;fontSize=12;exitX=0.25;exitY=0.25;exitDx=0;exitDy=0;exitPerimeter=0;" edge="1" parent="1" source="lZClP9aSU73zNONE4iG2-125" target="lZClP9aSU73zNONE4iG2-98">
          <mxGeometry relative="1" as="geometry" />
        </mxCell>
        <mxCell id="lZClP9aSU73zNONE4iG2-125" value="iDas" style="ellipse;shape=cloud;whiteSpace=wrap;html=1;fontSize=12;fillColor=#dae8fc;strokeColor=#6c8ebf;" vertex="1" parent="1">
          <mxGeometry x="83" y="370" width="120" height="80" as="geometry" />
        </mxCell>
        <mxCell id="lZClP9aSU73zNONE4iG2-129" style="edgeStyle=orthogonalEdgeStyle;rounded=0;orthogonalLoop=1;jettySize=auto;html=1;exitX=0.25;exitY=0.25;exitDx=0;exitDy=0;exitPerimeter=0;entryX=0.248;entryY=0.872;entryDx=0;entryDy=0;entryPerimeter=0;fontSize=12;" edge="1" parent="1" source="lZClP9aSU73zNONE4iG2-126" target="lZClP9aSU73zNONE4iG2-125">
          <mxGeometry relative="1" as="geometry" />
        </mxCell>
        <mxCell id="lZClP9aSU73zNONE4iG2-133" style="edgeStyle=orthogonalEdgeStyle;rounded=0;orthogonalLoop=1;jettySize=auto;html=1;entryX=0;entryY=0.5;entryDx=0;entryDy=0;fontSize=12;" edge="1" parent="1" source="lZClP9aSU73zNONE4iG2-126" target="lZClP9aSU73zNONE4iG2-131">
          <mxGeometry relative="1" as="geometry" />
        </mxCell>
        <mxCell id="lZClP9aSU73zNONE4iG2-126" value="taier" style="ellipse;shape=cloud;whiteSpace=wrap;html=1;fontSize=12;fillColor=#d5e8d4;strokeColor=#82b366;" vertex="1" parent="1">
          <mxGeometry x="83" y="540" width="120" height="80" as="geometry" />
        </mxCell>
        <mxCell id="lZClP9aSU73zNONE4iG2-128" value="&lt;p&gt;&lt;span&gt;请求taier服务创建集群&lt;/span&gt;&lt;span&gt;（&lt;/span&gt;&lt;span style=&quot;background-color: rgb(255 , 255 , 255) ; font-family: &amp;#34;jetbrains mono&amp;#34; , monospace ; font-size: 9.8pt&quot;&gt;ClusterController.&lt;/span&gt;&lt;span style=&quot;color: rgb(0 , 98 , 122) ; background-color: rgb(255 , 255 , 255) ; font-family: &amp;#34;jetbrains mono&amp;#34; , monospace ; font-size: 9.8pt&quot;&gt;addCluster&lt;/span&gt;&lt;span&gt;）&lt;/span&gt;&lt;/p&gt;" style="text;html=1;strokeColor=none;fillColor=none;align=center;verticalAlign=middle;whiteSpace=wrap;rounded=0;fontSize=12;dashed=1;" vertex="1" parent="1">
          <mxGeometry x="143" y="470" width="340" height="50" as="geometry" />
        </mxCell>
        <mxCell id="lZClP9aSU73zNONE4iG2-130" value="返回创建集群id" style="text;html=1;strokeColor=none;fillColor=none;align=center;verticalAlign=middle;whiteSpace=wrap;rounded=0;dashed=1;fontSize=12;" vertex="1" parent="1">
          <mxGeometry x="50" y="470" width="60" height="30" as="geometry" />
        </mxCell>
        <mxCell id="lZClP9aSU73zNONE4iG2-131" value="" style="aspect=fixed;perimeter=ellipsePerimeter;html=1;align=center;shadow=0;dashed=0;spacingTop=3;image;image=img/lib/active_directory/database_partition_2.svg;fontSize=12;strokeColor=default;" vertex="1" parent="1">
          <mxGeometry x="330" y="561.5" width="50" height="37" as="geometry" />
        </mxCell>
        <mxCell id="lZClP9aSU73zNONE4iG2-134" value="写入console_cluster到db" style="text;html=1;strokeColor=none;fillColor=none;align=center;verticalAlign=middle;whiteSpace=wrap;rounded=0;dashed=1;fontSize=12;" vertex="1" parent="1">
          <mxGeometry x="193" y="555" width="137" height="30" as="geometry" />
        </mxCell>
        <mxCell id="lZClP9aSU73zNONE4iG2-135" value="&lt;span&gt;请求idas创建集群（&lt;/span&gt;&lt;span style=&quot;font-family: &amp;#34;jetbrains mono&amp;#34; , monospace ; font-size: 13.0667px ; background-color: rgb(255 , 255 , 255)&quot;&gt;ClusterController.created&lt;/span&gt;&lt;span&gt;）&lt;/span&gt;" style="text;html=1;strokeColor=none;fillColor=none;align=center;verticalAlign=middle;whiteSpace=wrap;rounded=0;dashed=1;fontSize=12;" vertex="1" parent="1">
          <mxGeometry x="120" y="280" width="347" height="30" as="geometry" />
        </mxCell>
        <mxCell id="lZClP9aSU73zNONE4iG2-137" value="写入数据到&lt;span style=&quot;color: rgb(6 , 125 , 23) ; background-color: rgb(255 , 255 , 255) ; font-family: &amp;#34;jetbrains mono&amp;#34; , monospace ; font-size: 9.8pt&quot;&gt;t_tenant_cluster，&lt;br&gt;用于关联tms中的租户于taier的集群关系绑定&lt;/span&gt;" style="text;html=1;align=center;verticalAlign=middle;resizable=0;points=[];autosize=1;strokeColor=none;fillColor=none;fontSize=12;rotation=0;" vertex="1" parent="1">
          <mxGeometry x="-180" y="361.5" width="270" height="30" as="geometry" />
        </mxCell>
        <mxCell id="lZClP9aSU73zNONE4iG2-138" value="" style="aspect=fixed;perimeter=ellipsePerimeter;html=1;align=center;shadow=0;dashed=0;spacingTop=3;image;image=img/lib/active_directory/database_partition_2.svg;fontSize=12;strokeColor=default;" vertex="1" parent="1">
          <mxGeometry x="-230" y="391.5" width="50" height="37" as="geometry" />
        </mxCell>
        <mxCell id="lZClP9aSU73zNONE4iG2-144" value="&lt;font style=&quot;font-size: 18px&quot;&gt;创建集群&lt;/font&gt;" style="rounded=1;whiteSpace=wrap;html=1;dashed=1;fontSize=12;strokeColor=default;" vertex="1" parent="1">
          <mxGeometry x="83" y="120" width="120" height="60" as="geometry" />
        </mxCell>
        <mxCell id="lZClP9aSU73zNONE4iG2-145" value="" style="rounded=0;whiteSpace=wrap;html=1;fontSize=12;strokeColor=default;" vertex="1" parent="1">
          <mxGeometry x="540" y="146.5" width="810" height="490" as="geometry" />
        </mxCell>
        <mxCell id="lZClP9aSU73zNONE4iG2-146" value="&lt;font style=&quot;font-size: 18px&quot;&gt;配置组件&lt;/font&gt;" style="rounded=1;whiteSpace=wrap;html=1;fontSize=12;strokeColor=default;" vertex="1" parent="1">
          <mxGeometry x="865" y="116.5" width="120" height="60" as="geometry" />
        </mxCell>
        <mxCell id="lZClP9aSU73zNONE4iG2-149" value="" style="edgeStyle=orthogonalEdgeStyle;rounded=0;orthogonalLoop=1;jettySize=auto;html=1;fontSize=18;" edge="1" parent="1" source="lZClP9aSU73zNONE4iG2-147" target="lZClP9aSU73zNONE4iG2-148">
          <mxGeometry relative="1" as="geometry" />
        </mxCell>
        <mxCell id="lZClP9aSU73zNONE4iG2-147" value="iDas-web" style="rounded=0;whiteSpace=wrap;html=1;fontSize=12;fillColor=#ffe6cc;strokeColor=#d79b00;" vertex="1" parent="1">
          <mxGeometry x="870" y="190" width="120" height="60" as="geometry" />
        </mxCell>
        <mxCell id="lZClP9aSU73zNONE4iG2-158" value="" style="edgeStyle=orthogonalEdgeStyle;rounded=0;orthogonalLoop=1;jettySize=auto;html=1;fontSize=12;fontColor=#000000;entryX=0.5;entryY=0;entryDx=0;entryDy=0;" edge="1" parent="1" source="lZClP9aSU73zNONE4iG2-148" target="lZClP9aSU73zNONE4iG2-159">
          <mxGeometry relative="1" as="geometry">
            <mxPoint x="930" y="501.5" as="targetPoint" />
          </mxGeometry>
        </mxCell>
        <mxCell id="lZClP9aSU73zNONE4iG2-148" value="idas" style="ellipse;shape=cloud;whiteSpace=wrap;html=1;fillColor=#dae8fc;strokeColor=#6c8ebf;rounded=0;" vertex="1" parent="1">
          <mxGeometry x="870" y="370" width="120" height="80" as="geometry" />
        </mxCell>
        <mxCell id="lZClP9aSU73zNONE4iG2-150" value="&lt;ol&gt;&lt;li&gt;&lt;span style=&quot;font-size: 12px&quot;&gt;获取组件版本列表&lt;/span&gt;&lt;span&gt;(&lt;/span&gt;&lt;span style=&quot;color: rgb(6 , 125 , 23) ; background-color: rgb(255 , 255 , 255) ; font-family: &amp;#34;jetbrains mono&amp;#34; , monospace ; font-size: 9.8pt&quot;&gt;getComponentVersion&lt;/span&gt;&lt;span&gt;)&lt;/span&gt;&lt;/li&gt;&lt;li&gt;&lt;span&gt;&lt;pre style=&quot;background-color: #ffffff ; color: #080808 ; font-family: &amp;#34;宋体&amp;#34; , monospace ; font-size: 9.8pt&quot;&gt;&lt;span style=&quot;color: #067d17&quot;&gt;获取对应的组件能选择的存储组件类型(&lt;/span&gt;getComponentStore)&lt;/pre&gt;&lt;/span&gt;&lt;/li&gt;&lt;li&gt;&lt;pre style=&quot;background-color: rgb(255 , 255 , 255)&quot;&gt;&lt;span style=&quot;font-size: 12px&quot;&gt;加载指定组件对应的模板（loadTemplate）&lt;/span&gt;&lt;/pre&gt;&lt;/li&gt;&lt;/ol&gt;" style="text;html=1;strokeColor=none;fillColor=none;align=left;verticalAlign=middle;whiteSpace=wrap;rounded=0;dashed=1;fontSize=18;" vertex="1" parent="1">
          <mxGeometry x="930" y="250" width="420" height="120" as="geometry" />
        </mxCell>
        <mxCell id="lZClP9aSU73zNONE4iG2-159" value="" style="rhombus;whiteSpace=wrap;html=1;labelBackgroundColor=#FFFFFF;fontSize=12;fontColor=#000000;strokeColor=default;" vertex="1" parent="1">
          <mxGeometry x="890" y="500" width="80" height="80" as="geometry" />
        </mxCell>
      </root>
    </mxGraphModel>
  </diagram>
</mxfile>
